<svg width="14" height="14" viewBox="0 0 14 14" fill="none" xmlns="http://www.w3.org/2000/svg">
<g clip-path="url(#clip0_9_35)">
<path d="M6.9838 14.0012C5.59803 13.9977 4.24448 13.5831 3.09453 12.8099C1.94459 12.0367 1.04998 10.9398 0.523979 9.65786C-0.00201685 8.37597 -0.135737 6.96685 0.139751 5.60892C0.41524 4.25099 1.08755 3.00535 2.07154 2.02971C3.05553 1.05408 4.30694 0.392341 5.66731 0.128295C7.02769 -0.135751 8.43583 0.00977258 9.71344 0.546437C10.991 1.0831 12.0806 1.98677 12.8442 3.14301C13.6079 4.29924 14.0111 5.65605 14.003 7.04161C13.9922 8.89424 13.2473 10.667 11.9316 11.9716C10.6159 13.2761 8.83671 14.0059 6.9838 14.0012ZM7.0002 13.1271C8.21234 13.1269 9.39715 12.767 10.4047 12.0932C11.4122 11.4193 12.1971 10.4617 12.66 9.34161C13.123 8.22151 13.2431 6.98925 13.0053 5.80084C12.7675 4.61242 12.1823 3.52127 11.324 2.66551C10.4656 1.80975 9.37266 1.22786 8.1834 0.993496C6.99414 0.759134 5.76207 0.882838 4.64316 1.34895C3.52424 1.81506 2.5688 2.60261 1.89776 3.61193C1.22672 4.62124 0.870258 5.80693 0.873503 7.0189C0.87951 8.64015 1.52772 10.193 2.67623 11.3374C3.82474 12.4819 5.37998 13.1247 7.00146 13.1252" fill="#A3ABBC"/>
<path d="M6.42946 2.43133H7.35102V2.74668C7.35102 4.00805 7.35986 5.26501 7.34472 6.52387C7.33818 6.65232 7.36077 6.78059 7.41079 6.89909C7.46082 7.01759 7.53699 7.12325 7.63361 7.20816C8.43154 7.98202 9.21054 8.77479 10.0135 9.57513L9.30894 10.1907C9.29822 10.1812 9.23136 10.1276 9.17143 10.0645C8.30791 9.2024 7.44312 8.34151 6.58527 7.47242C6.49198 7.3808 6.43373 7.25941 6.42063 7.12933C6.40991 5.61568 6.41369 4.10203 6.41432 2.58838C6.41432 2.54171 6.4219 2.49503 6.4282 2.42566" fill="#A3ABBC"/>
</g>
<defs>
<clipPath id="clip0_9_35">
<rect width="14" height="14" fill="white"/>
</clipPath>
</defs>
</svg>
