<svg width="19" height="23" viewBox="0 0 19 23" fill="none" xmlns="http://www.w3.org/2000/svg">
<g clip-path="url(#clip0_3_226)">
<rect width="19" height="23" fill="white"/>
<path d="M4.13575 6.38514V8.48982C3.96347 8.50678 3.79192 8.44947 3.65657 8.32973C3.52121 8.20999 3.43241 8.037 3.40854 7.84651C3.37578 7.57445 3.37404 7.29889 3.40337 7.02635C3.42585 6.83423 3.5151 6.65951 3.65199 6.53966C3.78888 6.41982 3.96253 6.36435 4.13575 6.38514Z" fill="#E9AC9D"/>
<path d="M14.4396 6.33264C14.6015 6.30762 14.7658 6.35309 14.8983 6.45957C15.0308 6.56604 15.1212 6.72529 15.1506 6.90409C15.1932 7.21801 15.1916 7.53738 15.1461 7.85079C15.1119 8.02853 15.0211 8.18656 14.8905 8.29579C14.7598 8.40502 14.5981 8.45812 14.435 8.44527L14.4396 6.33264Z" fill="#E9AC9D"/>
<path d="M5.52878 14.1923L8.36782 15.0707L12.8927 14.0486C12.8927 14.0486 8.54558 13.3693 5.52878 14.1923Z" fill="#F77B18"/>
<path d="M5.24241 3.29869C5.33095 3.44317 5.46719 3.54294 5.62152 3.57632C5.77585 3.6097 5.93579 3.57398 6.06658 3.47695C6.46865 3.25411 6.86104 3.00253 7.256 2.75813C7.75601 2.41982 8.3074 2.18594 8.88302 2.06805C9.59524 1.9874 10.3118 2.16519 10.9257 2.57483C11.3245 2.80844 11.7117 3.07227 12.108 3.31163C12.2655 3.40969 12.4311 3.49079 12.6025 3.55386C12.7032 3.60578 12.8169 3.61734 12.9244 3.58654C13.0318 3.55575 13.1264 3.48451 13.192 3.38495C13.3505 3.80917 13.4341 4.2633 13.4383 4.72264C13.4347 5.07075 13.4937 5.41619 13.6118 5.73861C13.7299 6.06102 13.9048 6.35392 14.1261 6.60019C14.1637 6.64014 14.1867 6.69416 14.1907 6.75186C14.2232 7.68091 14.2016 8.61132 14.1261 9.53727C13.8029 11.964 12.2715 13.6267 10.2877 13.746C9.40704 13.817 8.52214 13.7869 7.64706 13.6561C5.76536 13.3327 4.30706 11.1317 4.31353 8.77178C4.31353 8.15072 4.3174 7.53038 4.31353 6.90932C4.30815 6.83764 4.31744 6.76553 4.34073 6.69842C4.36402 6.63131 4.40068 6.57096 4.44796 6.52187C4.81328 6.07508 5.02959 5.50236 5.06076 4.89949C5.11506 4.39272 5.17453 3.88309 5.24241 3.29869ZM10.3969 10.3862L10.4363 10.3194C10.3646 10.2338 10.3071 10.1159 10.2191 10.0685C9.91887 9.88878 9.5829 9.79555 9.24191 9.79731C8.90091 9.79907 8.56574 9.89578 8.26698 10.0786C8.18618 10.1253 8.13382 10.2461 8.02651 10.3862H10.3969ZM8.46995 10.54C8.45859 10.7157 8.49101 10.8915 8.56366 11.048C8.6363 11.2045 8.74636 11.3356 8.88171 11.4271C9.00636 11.5191 9.15499 11.5624 9.3042 11.5502C9.45342 11.5379 9.59472 11.4709 9.70588 11.3595C9.81747 11.2646 9.90526 11.1394 9.96084 10.9959C10.0164 10.8524 10.0379 10.6954 10.0233 10.54H8.46995ZM7.85199 4.64573C8.76974 4.38977 9.7304 4.39224 10.6471 4.65292C9.7447 4.28734 8.75582 4.2838 7.85134 4.64288L7.85199 4.64573ZM10.276 5.15395C9.62203 4.93924 8.92616 4.93924 8.27215 5.15395H10.276ZM7.0737 7.77046L7.33226 8.12987C7.38785 8.00983 7.48806 7.88978 7.48741 7.77046C7.48677 7.65114 7.38527 7.53539 7.32774 7.4175L7.0737 7.77046ZM11.4163 7.77046L11.181 7.4168C11.1067 7.52103 11.0482 7.63806 11.0078 7.76327C10.9813 7.91997 11.0239 8.12265 11.1829 8.11258C11.2553 8.10611 11.3206 7.91562 11.4157 7.76827L11.4163 7.77046ZM7.39174 11.2431C7.5755 10.6316 7.85664 10.0618 8.22173 9.56101C7.78292 10.0012 7.4903 10.593 7.39109 11.2409L7.39174 11.2431ZM11.0957 11.256C11.0281 10.5969 10.7288 9.99426 10.2631 9.5797C10.6468 10.0636 10.9308 10.635 11.095 11.2538L11.0957 11.256ZM6.585 7.43334C7.09826 6.72027 7.14739 6.84101 7.7033 6.88414C7.60097 6.81399 7.48484 6.77253 7.36491 6.76335C7.24497 6.75417 7.12481 6.77756 7.01479 6.83144C6.90478 6.88533 6.80818 6.96811 6.73331 7.0727C6.65844 7.1773 6.60755 7.30058 6.585 7.43189V7.43334ZM10.7912 6.89203C11.0068 6.80176 11.2458 6.81037 11.4557 6.9159C11.6656 7.02143 11.8293 7.21526 11.9108 7.45488C11.8915 7.32106 11.8426 7.19466 11.7686 7.08696C11.6946 6.97926 11.5978 6.89362 11.4868 6.83772C11.3757 6.78182 11.254 6.75741 11.1324 6.76664C11.0108 6.77587 10.8931 6.81847 10.7899 6.89063L10.7912 6.89203ZM8.90951 9.05713C8.91985 9.34465 9.03878 9.4388 9.33484 9.4043C9.37448 9.40679 9.41409 9.39873 9.45034 9.38074C9.4866 9.36274 9.51846 9.33536 9.54326 9.30089C9.56806 9.26641 9.58508 9.22584 9.59291 9.18256C9.60074 9.13928 9.59914 9.09454 9.58825 9.05208C9.56417 9.13078 9.51862 9.1992 9.45794 9.24776C9.39726 9.29632 9.32446 9.3226 9.2497 9.323C9.17494 9.32339 9.10194 9.29786 9.04085 9.24995C8.97976 9.20203 8.93361 9.13412 8.90886 9.05568L8.90951 9.05713Z" fill="#FDCABD"/>
<path d="M10.5527 9.79539H7.89787C8.01746 9.65162 8.07692 9.53447 8.16677 9.48775C8.50742 9.3044 8.8807 9.20831 9.25915 9.20657C9.6376 9.20483 10.0116 9.29745 10.3536 9.47766C10.4493 9.5251 10.5165 9.64371 10.5973 9.72853L10.5527 9.79539Z" fill="black"/>
<path d="M8.39174 9.89233H10.1319C10.1461 10.0521 10.1204 10.213 10.0577 10.3576C9.99494 10.5022 9.8976 10.6247 9.77635 10.7118C9.64608 10.8241 9.48859 10.8905 9.32411 10.9026C9.15963 10.9146 8.99568 10.8717 8.85329 10.7794C8.70702 10.6976 8.5854 10.57 8.50341 10.4124C8.42142 10.2549 8.3826 10.0741 8.39174 9.89233ZM8.47512 9.97859L8.46544 10.0742C8.83678 10.2344 9.2403 10.2793 9.63286 10.2043C9.91275 10.1921 9.98709 10.1403 10.053 9.97859H8.47512Z" fill="black"/>
<path d="M7.70071 4.64275C8.71973 4.28298 9.81426 4.2855 10.8319 4.64995C9.80159 4.38929 8.73201 4.38682 7.70071 4.64275Z" fill="black"/>
<path d="M10.4131 4.85559H8.16808C8.90395 4.64091 9.67718 4.64091 10.4131 4.85559Z" fill="black"/>
<path d="M6.95927 7.31828L7.24305 6.96606C7.30769 7.08395 7.42146 7.20109 7.42211 7.31898C7.42275 7.43687 7.31092 7.55835 7.24887 7.67839L6.95927 7.31828Z" fill="black"/>
<path d="M11.5592 7.31973C11.4525 7.46349 11.3794 7.65758 11.2973 7.66189C11.1196 7.67196 11.0718 7.46923 11.1034 7.31253C11.1497 7.18551 11.2153 7.06831 11.2973 6.96606L11.5592 7.31973Z" fill="black"/>
<path d="M7.28314 10.6364C7.40316 9.9706 7.73273 9.37419 8.21268 8.95435C7.80973 9.44441 7.49428 10.0153 7.28314 10.6364Z" fill="black"/>
<path d="M11.2334 10.6484C11.0432 10.0172 10.7241 9.44344 10.3012 8.97217C10.5524 9.16473 10.7649 9.41312 10.9253 9.70165C11.0858 9.99017 11.1906 10.3125 11.2334 10.6484Z" fill="black"/>
<path d="M6.42728 7.02348C6.46478 6.88559 6.52986 6.75891 6.61764 6.65297C6.70542 6.54703 6.8136 6.46454 6.93412 6.41171C7.05464 6.35888 7.18435 6.33709 7.31353 6.34792C7.44271 6.35876 7.56801 6.40194 7.68004 6.47428C7.05689 6.43115 7.00194 6.31041 6.42728 7.02348Z" fill="black"/>
<path d="M10.8429 6.48079C10.9554 6.40615 11.0819 6.36147 11.2126 6.35023C11.3432 6.33898 11.4744 6.36153 11.5959 6.41604C11.7174 6.47054 11.8259 6.55552 11.9129 6.6644C12 6.77328 12.0632 6.90308 12.0976 7.04364C11.9874 6.79457 11.7985 6.59942 11.567 6.49558C11.3355 6.39173 11.0777 6.38647 10.8429 6.48079Z" fill="black"/>
<path d="M8.88431 8.51504C8.91838 8.59546 8.9724 8.66338 9.04001 8.7108C9.10763 8.75823 9.18601 8.78316 9.26595 8.78271C9.34588 8.78226 9.42405 8.75645 9.49123 8.70826C9.5584 8.66007 9.61181 8.59154 9.64514 8.51074C9.6697 8.72639 9.58048 8.83995 9.36134 8.86296C9.02521 8.89746 8.89336 8.80401 8.88431 8.51504Z" fill="black"/>
<path d="M10.5863 15.6924C10.5899 15.7135 10.5909 15.735 10.5895 15.7563C10.4602 16.307 10.4602 16.307 9.95345 16.307C9.50743 16.307 9.06077 16.2976 8.61539 16.3113C8.43634 16.317 8.3342 16.2653 8.29219 16.0626C8.25943 15.9363 8.21859 15.8128 8.17 15.6931L10.5863 15.6924Z" fill="white"/>
<path d="M10.3756 16.384C10.3801 16.6565 10.2831 16.7693 10.0187 16.752C9.60471 16.7261 9.18972 16.7261 8.7757 16.752C8.52295 16.7671 8.4596 16.6299 8.44086 16.3847L10.3756 16.384Z" fill="white"/>
<path d="M8.59988 16.8281H10.2431C10.2431 17.0991 10.1513 17.2177 9.89788 17.1962C9.59658 17.1729 9.2942 17.1729 8.9929 17.1962C8.75179 17.2134 8.60635 17.1415 8.59988 16.8281Z" fill="white"/>
<path d="M8.76341 17.2747H10.0899C10.0847 17.6132 10.0653 17.6341 9.78217 17.6341C9.56677 17.623 9.351 17.6246 9.13576 17.6391C8.88366 17.6729 8.77117 17.5586 8.76341 17.2747Z" fill="white"/>
<path d="M9.96704 17.7305C9.96704 17.9813 9.89788 18.1179 9.64384 18.0899C9.43678 18.0761 9.22921 18.0744 9.02199 18.0848L8.89723 17.7319L9.96704 17.7305Z" fill="white"/>
<path d="M9.8481 18.166C9.80091 18.3472 9.83259 18.5405 9.58179 18.5348C9.1558 18.5261 9.1558 18.5405 9.08017 18.166H9.8481Z" fill="white"/>
<path d="M9.72398 18.3535L9.51908 19.0845L9.46865 19.0932L9.21591 18.3528L9.72398 18.3535Z" fill="white"/>
<path d="M8.47512 9.99438H10.0524C9.98773 10.1561 9.9121 10.21 9.6322 10.2201C9.23965 10.2951 8.83613 10.2502 8.46478 10.09L8.47512 9.99438Z" fill="white"/>
<path d="M5.77052 13.7661C6.24628 13.5275 6.78928 13.6993 7.23789 13.4218C8.76407 14.1823 10.1403 13.7258 11.4835 12.7332C11.4835 12.8992 11.4906 13.0645 11.4835 13.2277C11.4712 13.4433 11.5527 13.5224 11.7421 13.5411C12.1946 13.5856 12.6432 13.6547 13.0937 13.715C13.1293 13.7201 13.1642 13.733 13.2282 13.7503C12.9352 14.1261 12.5736 14.4283 12.1674 14.6366C11.7985 14.8225 11.4189 14.9807 11.031 15.1103C10.956 15.1284 10.8872 15.17 10.8327 15.2301C10.7782 15.2902 10.7403 15.3663 10.7233 15.4496C10.351 16.7664 9.96833 18.0804 9.58824 19.3944C9.56626 19.4663 9.543 19.5447 9.5055 19.6669C9.39561 19.3571 9.298 19.0918 9.20427 18.8187C8.80221 17.6628 8.39885 16.5084 8.00389 15.3497C7.98373 15.2753 7.94616 15.2082 7.89506 15.1553C7.84395 15.1024 7.78112 15.0655 7.713 15.0485C7.07263 14.854 6.47988 14.5017 5.97868 14.0177C5.91921 13.9587 5.86361 13.8955 5.80737 13.8322C5.79298 13.8117 5.78062 13.7896 5.77052 13.7661ZM10.5766 15.2627H8.15967C8.20805 15.3824 8.24866 15.5059 8.28119 15.6322C8.32385 15.8349 8.42599 15.8866 8.6044 15.8808C9.05042 15.8665 9.49645 15.8765 9.94248 15.8765C10.4506 15.8765 10.4506 15.8765 10.5786 15.3259C10.5804 15.3046 10.5797 15.2838 10.5766 15.2627ZM10.3678 15.9872H8.43246C8.45185 16.2323 8.51454 16.3696 8.76793 16.3545C9.18196 16.3286 9.59696 16.3286 10.011 16.3545C10.2754 16.3725 10.3723 16.2597 10.3678 15.9872ZM8.59341 16.4595C8.59987 16.7744 8.74532 16.8433 8.98126 16.8261C9.28256 16.8028 9.58494 16.8028 9.88623 16.8261C10.1403 16.8476 10.2321 16.7291 10.2314 16.4581L8.59341 16.4595ZM8.7576 16.9339C8.76535 17.2214 8.87784 17.3321 9.13253 17.3012C9.34777 17.2868 9.56354 17.2852 9.77894 17.2962C10.0627 17.2962 10.0821 17.2732 10.0866 16.9368L8.7576 16.9339ZM9.96187 17.4184H8.89464L9.01939 17.7713C9.22661 17.7609 9.43418 17.7626 9.64124 17.7764C9.89205 17.8058 9.96316 17.6693 9.96187 17.4184ZM9.84422 17.8813H9.07563C9.15126 18.2565 9.15191 18.2407 9.57725 18.2501C9.82871 18.2537 9.79638 18.0625 9.84356 17.8813H9.84422ZM9.72076 18.3536H9.21333L9.46607 19.094L9.51649 19.0853L9.72076 18.3536Z" fill="#E9AC9D"/>
<path d="M3.87006 6.81223C3.91272 6.84026 3.95669 6.8762 3.99935 6.9107C4.05667 6.8967 4.11519 6.88972 4.17387 6.88986V7.01207C4.19864 7.02011 4.22436 7.02398 4.25016 7.02356H4.27344C4.27006 6.95432 4.28047 6.88511 4.30393 6.82087C4.3274 6.75663 4.36334 6.69894 4.40918 6.65194C4.77774 6.20343 4.99619 5.62748 5.02779 5.02093C5.08791 4.50913 5.14737 3.99663 5.21654 3.40864C5.30632 3.55413 5.44396 3.65451 5.59974 3.68813C5.75551 3.72175 5.91691 3.68592 6.04912 3.58834C6.45571 3.36479 6.85197 3.11176 7.2508 2.86952C7.75614 2.52934 8.31294 2.29427 8.89398 2.17584C9.61315 2.09459 10.3367 2.27332 10.9573 2.6855C11.3601 2.92055 11.7511 3.18867 12.1519 3.4266C12.3111 3.52527 12.4785 3.60686 12.6516 3.67027C12.7532 3.72244 12.8679 3.73406 12.9764 3.70316C13.0848 3.67226 13.1804 3.60073 13.2469 3.50064C13.4071 3.92691 13.4916 4.3836 13.4958 4.84555C13.4923 5.19585 13.552 5.54338 13.6714 5.86759C13.7907 6.1918 13.9673 6.48612 14.1907 6.73317C14.2285 6.77356 14.2516 6.82809 14.2553 6.88626C14.2553 6.89129 14.2553 6.89562 14.2553 6.90065H14.2605C14.3741 6.88752 14.4841 6.8486 14.5837 6.78634L14.5695 6.77629C14.5792 6.69651 14.5895 6.61024 14.6005 6.52398C14.742 5.6362 14.7328 4.72679 14.5734 3.84278C14.5121 3.365 14.3272 2.91736 14.0412 2.55438C13.7552 2.1914 13.3804 1.92876 12.9625 1.79847C12.8368 1.76342 12.7213 1.69313 12.627 1.59433C11.7826 0.614957 10.6254 0.0446901 9.40571 0.00688887C8.18606 -0.0309124 7.00206 0.466788 6.10989 1.39234C5.91179 1.60551 5.67061 1.76278 5.40659 1.85094C4.9821 2.01036 4.60948 2.30583 4.33561 2.70015C4.06175 3.09448 3.89887 3.57005 3.86747 4.06706C3.75047 4.89594 3.75702 5.74059 3.88687 6.56711C3.89811 6.64917 3.89236 6.73301 3.87006 6.81223Z" fill="#004B85"/>
<path d="M11.4544 12.8058C11.4547 12.7779 11.4591 12.7502 11.4674 12.7239C11.1136 12.8327 10.75 12.8973 10.3833 12.9165C9.39697 12.9881 8.40674 12.9581 7.42535 12.8267C7.28674 12.805 7.14929 12.775 7.01359 12.7368C7.01359 12.744 7.01359 12.7512 7.01359 12.7584V12.8849C7.01286 12.9094 7.00893 12.9335 7.00195 12.9568C7.00573 12.9822 7.00725 13.0079 7.00649 13.0337C7.00002 13.2795 6.99679 13.5254 7.00649 13.7705C7.00649 13.7705 6.98514 13.9459 7.06012 14.0026L7.09956 14.0163C7.13427 14.0265 7.16651 14.0451 7.19393 14.0709C8.6684 14.771 10.0045 14.334 11.3077 13.3801C11.33 13.3368 11.363 13.3014 11.4027 13.2781C11.406 13.2695 11.4098 13.2616 11.4137 13.2536L11.4441 13.2098C11.4441 13.1774 11.4441 13.1451 11.4389 13.1135C11.4321 13.0542 11.4374 12.994 11.4544 12.9374C11.4544 12.8947 11.4544 12.8509 11.4544 12.8058Z" fill="#004B85"/>
<path d="M12.9199 13.7502C12.685 14.1082 12.3785 14.4005 12.0246 14.6041C11.6783 14.7896 11.3209 14.9479 10.9548 15.0778C10.8825 15.0979 10.8168 15.1405 10.7655 15.2006C10.7142 15.2607 10.6794 15.3358 10.6652 15.4172C10.3148 16.734 9.95411 18.048 9.59729 19.362C9.5766 19.4339 9.55462 19.5123 9.51907 19.6345C9.41565 19.3246 9.32516 19.0594 9.23595 18.7862C8.8578 17.6304 8.4777 16.4759 8.10601 15.3172C8.08849 15.2445 8.05387 15.1782 8.0057 15.1253C7.95753 15.0724 7.89756 15.0346 7.83194 15.016C7.22343 14.818 6.66463 14.4654 6.19974 13.986C6.1435 13.927 6.09115 13.8638 6.03879 13.8005C6.02502 13.7797 6.01333 13.7573 6.00389 13.7337C6.27021 13.5899 6.78799 13.4964 6.76472 13.4619C6.00564 13.5405 5.26608 13.774 4.58308 14.1506C1.57984 15.8391 0.0633503 18.6683 0.00388032 22.5916C-0.0025838 23.0323 -0.0413682 22.9964 0.33549 22.9964H18.6723C18.7173 22.9934 18.7624 22.9934 18.8074 22.9964C18.9567 23.0165 19.0097 22.9389 18.9981 22.7663C18.9845 22.1117 18.9414 21.4581 18.8688 20.8083C18.6891 19.4285 18.2153 18.1166 17.4868 16.9819C16.7584 15.8473 15.7965 14.9228 14.6813 14.2857C13.766 13.7432 12.7487 13.4477 11.7117 13.4231C11.6641 13.4234 11.6167 13.4151 11.5714 13.3987C11.5553 13.4109 11.5385 13.4224 11.5217 13.4325C11.5045 13.4427 11.4862 13.4507 11.4674 13.4562C11.5166 13.488 11.5721 13.506 11.629 13.5087" fill="#F77B18"/>
</g>
<defs>
<clipPath id="clip0_3_226">
<rect width="19" height="23" fill="white"/>
</clipPath>
</defs>
</svg>
