<svg width="18" height="11" viewBox="0 0 18 11" fill="none" xmlns="http://www.w3.org/2000/svg">
<path d="M16.4766 1.27502C16.1023 0.940161 15.6643 0.680593 15.1877 0.511047L13.0861 2.89502C12.4196 3.64635 11.7508 4.39505 11.0796 5.14105C11.0249 5.22628 10.944 5.29238 10.8486 5.33002C10.3458 5.9786 9.80453 6.59767 9.22744 7.18402C9.20683 7.21312 9.18038 7.2378 9.1497 7.25659C9.11903 7.27538 9.08477 7.28791 9.04901 7.29333C9.01325 7.29876 8.97675 7.29696 8.9417 7.28815C8.90665 7.27933 8.87378 7.26363 8.84513 7.242C8.82319 7.22558 8.80392 7.20605 8.78792 7.18402C8.21293 6.59609 7.67202 5.97711 7.16777 5.33002C6.87643 5.09787 6.61792 4.82885 6.39909 4.53003C5.22462 3.23603 4.06446 1.93005 2.89919 0.623047C2.87172 0.587289 2.84716 0.549473 2.82563 0.51001C2.34905 0.680693 1.9112 0.940901 1.5367 1.276C1.29455 1.41895 1.08139 1.60439 0.90802 1.823L8.06316 9.836C8.16242 9.99355 8.30102 10.1239 8.46587 10.2147C8.63072 10.3054 8.81642 10.3538 9.00559 10.355C9.19476 10.3538 9.38051 10.3054 9.54537 10.2147C9.71022 10.1239 9.84882 9.99355 9.94808 9.836C12.3331 7.16333 14.7182 4.49233 17.1032 1.823C16.9316 1.60242 16.7177 1.41664 16.4735 1.276L16.4766 1.27502Z" fill="#D96304"/>
</svg>
