<svg width="14" height="8" viewBox="0 0 14 8" fill="none" xmlns="http://www.w3.org/2000/svg">
<path d="M0.338062 0.778076C0.517962 1.29808 0.626293 1.83711 0.855257 2.34711C1.395 3.58194 2.29396 4.63425 3.4403 5.37311C4.25645 5.91375 5.19425 6.25309 6.17357 6.36212C7.2922 6.49839 8.42791 6.35314 9.47314 5.94012C11.0335 5.29524 12.3008 4.11694 13.0384 2.62512C13.3096 2.03013 13.5239 1.41177 13.6783 0.778076C13.8112 0.946076 13.7151 1.14407 13.7478 1.32507L13.5434 2.61108C13.1965 3.88768 12.4978 5.04655 11.5236 5.96112C11.0711 6.37569 10.5633 6.72822 10.0139 7.00909C9.58667 7.21404 9.14697 7.39306 8.69728 7.5451C7.90211 7.72178 7.08274 7.76972 6.27171 7.68707C5.9579 7.63407 5.64204 7.5871 5.32722 7.5451C4.87779 7.39279 4.43818 7.2141 4.01071 7.01007C3.1412 6.55799 2.37794 5.93304 1.76993 5.17529C1.16191 4.41755 0.722539 3.54379 0.480119 2.61011C0.386434 2.18536 0.318224 1.75565 0.275736 1.32312C0.299246 1.14312 0.205181 0.948076 0.338062 0.778076Z" fill="#E9B782"/>
</svg>
