<svg width="11" height="2" viewBox="0 0 11 2" fill="none" xmlns="http://www.w3.org/2000/svg">
<path d="M5.538 1.26106H1.078C0.670997 1.26106 0.428998 1.05306 0.421998 0.712057C0.415998 0.401057 0.661998 0.176056 1.046 0.156056C1.212 0.146056 1.379 0.156056 1.546 0.156056H9.908C10.0057 0.151562 10.1036 0.153567 10.201 0.162056C10.3392 0.176842 10.4673 0.241427 10.5613 0.343747C10.6553 0.446066 10.7089 0.579121 10.712 0.718056C10.7105 0.861076 10.654 0.998035 10.5542 1.10047C10.4544 1.2029 10.3189 1.26292 10.176 1.26806C10.03 1.28006 9.882 1.26806 9.736 1.26806L5.538 1.26106Z" fill="#F6F5F7"/>
</svg>
