<svg width="20" height="11" viewBox="0 0 20 11" fill="none" xmlns="http://www.w3.org/2000/svg">
<path d="M19.3464 5.74103C19.3464 5.59303 19.3464 5.441 19.3383 5.298C19.3465 4.64595 19.1592 4.00583 18.7997 3.4567C18.4402 2.90756 17.9242 2.47345 17.3154 2.20801C16.8075 1.98993 16.2556 1.88737 15.7014 1.90802C15.6241 1.91262 15.5468 1.90029 15.475 1.87192C15.4032 1.84355 15.3388 1.79984 15.2864 1.74402C14.589 1.0867 13.7511 0.589057 12.8332 0.287018C12.4887 0.172018 12.132 0.0940234 11.7814 -0.000976562H10.2962C10.2727 0.0210234 10.2533 0.0570117 10.2257 0.0620117C8.94457 0.32903 7.72923 0.838595 6.64808 1.56201C6.05603 1.95171 5.44403 2.31152 4.81438 2.64001C3.84692 3.09878 2.77123 3.29494 1.69979 3.20801C1.33181 3.18601 1.16626 3.36303 1.2511 3.69403C1.32885 4.18468 1.55331 4.64182 1.89619 5.00787C2.23907 5.37393 2.68504 5.63249 3.17789 5.75101C3.42218 5.80701 3.67568 5.82203 3.93633 5.85703C3.8497 6.03622 3.73094 6.19877 3.58571 6.33701C3.07626 6.84397 2.43295 7.20263 1.72743 7.37302C1.57206 7.39202 1.41563 7.39901 1.26333 7.43301C0.900459 7.51401 0.808471 7.79502 1.05277 8.08102C1.1928 8.24402 1.34308 8.39601 1.49641 8.54401C2.21893 9.34071 3.14124 9.9394 4.17241 10.281C5.77911 10.2925 7.35013 9.8175 8.66995 8.92102C9.28014 8.47961 9.84931 7.98636 10.3708 7.44702C10.8056 8.02204 11.0622 8.70729 11.1099 9.42102C11.1283 9.73602 11.3051 9.86901 11.6056 9.79401C12.328 9.6374 13.0095 9.33657 13.6075 8.91034C14.2055 8.48411 14.7071 7.94169 15.0809 7.31702C15.1136 7.26202 15.131 7.19102 15.221 7.17102C15.2782 7.26102 15.3406 7.35501 15.3999 7.45001C15.8549 8.2185 16.4041 8.92977 17.0353 9.56802C17.2369 9.8101 17.5003 9.99571 17.7989 10.106C17.9948 10.0135 18.1574 9.86495 18.265 9.68002C19.0736 8.52474 19.4551 7.13412 19.3464 5.73801V5.74103Z" fill="#004B85"/>
</svg>
