<svg width="22" height="13" viewBox="0 0 22 13" fill="none" xmlns="http://www.w3.org/2000/svg">
<path d="M20.7121 2.62006C20.3224 1.93231 19.8049 1.32185 19.186 0.820068L11.9573 8.83307C11.856 8.99096 11.7156 9.12123 11.549 9.21179C11.3825 9.30235 11.1952 9.35021 11.0046 9.35101C10.8141 9.35021 10.6268 9.30235 10.4603 9.21179C10.2937 9.12123 10.1533 8.99096 10.052 8.83307C7.64379 6.1604 5.23388 3.4894 2.82226 0.820068C2.72644 0.857235 2.64367 0.920789 2.58406 1.00305C0.999074 2.53885 0.0832874 4.61526 0.0286545 6.79706C-0.0347195 8.43106 0.0286545 10.068 0.0286545 11.705L3.86076 11.684C3.86076 11.548 3.87299 11.412 3.87299 11.275V7.92804C3.86326 7.82096 3.8928 7.71397 3.95628 7.62622C4.01976 7.53847 4.11303 7.47567 4.21949 7.44904C4.32259 7.41535 4.43439 7.41733 4.53618 7.45465C4.63796 7.49197 4.72354 7.56238 4.77861 7.65405C4.87287 7.79831 4.91337 7.96995 4.89316 8.14001C4.89316 9.32401 4.8948 10.508 4.89821 11.692C4.89821 12.1267 4.89821 12.5601 4.89821 12.9921H17.1161C17.1161 12.5574 17.1161 12.124 17.1161 11.692C17.1161 10.474 17.1162 9.25706 17.1254 8.03906C17.1143 7.88655 17.1646 7.73583 17.2657 7.6192C17.3667 7.50257 17.5105 7.42929 17.6661 7.41504C17.9605 7.41504 18.1404 7.65104 18.1414 8.03204C18.1469 9.24938 18.1513 10.4671 18.1547 11.6851L21.9867 11.7061C21.9867 10.2291 21.999 8.75202 22 7.27502C22.0245 5.63602 21.5782 4.02323 20.7121 2.62006Z" fill="#F77B18"/>
</svg>
