<svg width="26" height="34" viewBox="0 0 26 34" fill="none" xmlns="http://www.w3.org/2000/svg">
<path d="M2.4 0.521014H23.309C23.6198 0.516385 23.9284 0.57305 24.2172 0.687768C24.506 0.802487 24.7694 0.97301 24.9923 1.18959C25.2152 1.40617 25.3932 1.66455 25.5162 1.94998C25.6392 2.2354 25.7047 2.54226 25.709 2.85301V31.669C25.7047 31.9798 25.6392 32.2866 25.5162 32.5721C25.3932 32.8575 25.2152 33.1159 24.9923 33.3324C24.7694 33.549 24.506 33.7195 24.2172 33.8343C23.9284 33.949 23.6198 34.0056 23.309 34.001H2.4C2.08925 34.0056 1.78063 33.949 1.49179 33.8343C1.20296 33.7195 0.939561 33.549 0.716667 33.3324C0.493774 33.1159 0.315753 32.8575 0.192782 32.5721C0.0698111 32.2866 0.00430207 31.9798 0 31.669L0 2.85301C0.00430207 2.54226 0.0698111 2.2354 0.192782 1.94998C0.315753 1.66455 0.493774 1.40617 0.716667 1.18959C0.939561 0.97301 1.20296 0.802487 1.49179 0.687768C1.78063 0.57305 2.08925 0.516385 2.4 0.521014Z" fill="#0D4C85"/>
</svg>
