<svg width="14" height="14" viewBox="0 0 14 14" fill="none" xmlns="http://www.w3.org/2000/svg">
<path d="M0.271599 5.22791L0.283889 3.96692C1.87266 3.97721 3.42503 3.50175 4.72416 2.60693C5.32764 2.16467 5.88995 1.67105 6.40457 1.1319C6.83553 1.70875 7.08942 2.39391 7.13645 3.10693C7.15484 3.42193 7.32964 3.55492 7.62606 3.47992C8.34294 3.32194 9.01852 3.02021 9.61018 2.59387C10.2019 2.16753 10.6967 1.62585 11.0636 1.00293C11.0963 0.94793 11.1126 0.876934 11.2026 0.856934C11.2598 0.946934 11.3202 1.04093 11.3794 1.13593C11.8266 1.90323 12.3676 2.61444 12.9904 3.25391C13.1887 3.4954 13.449 3.68108 13.7447 3.79193V5.2309C13.7725 6.14345 13.7493 7.05684 13.6752 7.96692C13.5207 8.60061 13.3065 9.21891 13.0353 9.8139C12.2984 11.3051 11.0323 12.4833 9.47312 13.1289C8.42787 13.5419 7.29218 13.6871 6.17355 13.5509C5.19379 13.4417 4.25563 13.1021 3.43928 12.5609C2.29302 11.822 1.39409 10.7697 0.854239 9.53491C0.625275 9.02791 0.516944 8.48588 0.337044 7.96588C0.264076 7.05507 0.24221 6.14106 0.271599 5.22791Z" fill="#F6CE9B"/>
</svg>
