<svg width="6" height="2" viewBox="0 0 6 2" fill="none" xmlns="http://www.w3.org/2000/svg">
<path d="M3.157 1.25896H1.603C1.203 1.25896 0.969998 1.05896 0.953998 0.732961C0.952002 0.659201 0.964578 0.585773 0.991004 0.51688C1.01743 0.447987 1.05719 0.384983 1.108 0.331478C1.15881 0.277973 1.21968 0.235018 1.28711 0.205072C1.35455 0.175126 1.42723 0.158775 1.501 0.156961C1.52 0.156961 1.539 0.156961 1.558 0.156961C2.62466 0.144294 3.69133 0.144294 4.758 0.156961C4.90492 0.144786 5.05067 0.191464 5.16318 0.286727C5.2757 0.381991 5.34577 0.518042 5.358 0.664962C5.358 0.676962 5.358 0.687962 5.358 0.699962C5.358 1.04296 5.137 1.24996 4.743 1.25596C4.215 1.26496 3.687 1.25596 3.159 1.25596" fill="#F6F5F7"/>
</svg>
