<svg width="14" height="3" viewBox="0 0 14 3" fill="none" xmlns="http://www.w3.org/2000/svg">
<path d="M6.98 2.03897H0.635002C0.528408 2.04604 0.422351 2.01879 0.332373 1.9612C0.242394 1.90362 0.173225 1.81873 0.135002 1.71897C0.0876346 1.62319 0.0684995 1.51592 0.0798324 1.40967C0.0911653 1.30343 0.132498 1.2026 0.199001 1.11897C0.253918 1.04977 0.325144 0.99528 0.406298 0.960375C0.487452 0.92547 0.575998 0.911242 0.664001 0.91897H13.219C13.3659 0.899922 13.5148 0.932822 13.64 1.01197C13.7351 1.07772 13.807 1.17175 13.8456 1.28072C13.8842 1.38968 13.8875 1.50804 13.855 1.61897C13.8343 1.736 13.7727 1.84184 13.681 1.91752C13.5894 1.99321 13.4738 2.03378 13.355 2.03197H6.98V2.03897Z" fill="#F6F5F7"/>
</svg>
